<?xml version="1.0" encoding="iso-8859-1"?>
<!-- Generator: Adobe Illustrator 19.0.0, SVG Export Plug-In . SVG Version: 6.00 Build 0)  -->
<svg version="1.1" id="Capa_1" xmlns="http://www.w3.org/2000/svg" xmlns:xlink="http://www.w3.org/1999/xlink" x="0px" y="0px"
	 viewBox="0 0 512 512" style="enable-background:new 0 0 512 512;" xml:space="preserve">
<g style="enable-background:new    ;">
	<path style="fill:#00479B;" d="M180.806,22.199c-13.044-7.532-34.204-7.527-47.164,0.004c-6.44,3.743-9.664,8.652-9.678,13.568
		v326.261c0.014-4.916,3.238-9.825,9.678-13.568c12.96-7.532,34.119-7.535,47.164-0.004l215.657,124.509v-326.26L180.806,22.199z"/>
	<g>
		<polygon style="fill:#C6C5CB;" points="185.538,45.067 136.086,73.806 136.079,73.801 136.079,373.687 328.655,483.105 
			328.655,483.113 378.114,454.371 378.114,154.485 		"/>
		<polygon style="fill:#D8D8DA;" points="328.655,183.219 328.655,483.105 136.079,373.687 328.655,483.105 136.079,373.687 
			136.079,73.801 		"/>
		<polygon style="fill:#E0E0E2;" points="136.079,73.809 185.538,45.067 378.114,154.485 328.655,183.228 		"/>
		<polygon style="fill:#C6C5CB;" points="328.655,183.228 378.114,154.485 378.114,454.371 328.655,483.113 		"/>
	</g>
	<polygon style="fill:#512CB7;" points="416.61,135 416.61,461.261 396.464,472.97 396.464,146.709 	"/>
	<path id="SVGCleanerId_1" style="fill:#6049EA;" d="M113.643,61.23c-12.192-7.039-18.28-16.3-18.254-25.547v326.261
		c-0.026,9.247,6.062,18.508,18.255,25.546l215.657,124.509V185.74L113.643,61.23z"/>
	<polygon style="fill:#512CB7;" points="349.447,174.032 349.447,500.292 329.301,512 329.301,185.74 	"/>
	<path style="fill:#016EF1;" d="M416.61,135l-20.147,11.708L180.806,22.199c-13.044-7.532-34.204-7.527-47.164,0.004
		c-12.96,7.532-12.897,19.788,0.147,27.318l215.657,124.509l-20.147,11.708L113.643,61.23
		c-24.228-13.988-24.355-36.751-0.285-50.738s63.368-13.988,87.596,0L416.61,135z"/>
	<path style="fill:#6049EA;" d="M200.954,10.491c-24.228-13.988-63.526-13.988-87.596,0c-11.996,6.971-17.978,16.123-17.966,25.281
		c0-0.029-0.003-0.06-0.003-0.089v326.261c-0.026,9.247,6.062,18.508,18.255,25.546l215.657,124.509l0,0l20.147-11.708v-54.468
		l47.016,27.145l20.147-11.708V135L200.954,10.491z"/>
	<polygon style="fill:#512CB7;" points="416.61,135 416.61,461.261 396.464,472.97 396.464,146.709 	"/>
	<path style="fill:#442B9E;" d="M180.806,22.199c-13.044-7.532-34.204-7.527-47.164,0.004c-6.44,3.743-9.664,8.652-9.678,13.568
		v326.261c0.014-4.916,3.238-9.825,9.678-13.568c12.96-7.532,34.119-7.535,47.164-0.004l215.657,124.509v-326.26L180.806,22.199z"/>
	<g>
		<polygon style="fill:#C6C5CB;" points="185.538,45.067 136.086,73.806 136.079,73.801 136.079,373.687 328.655,483.105 
			328.655,483.113 378.114,454.371 378.114,154.485 		"/>
		<polygon style="fill:#D8D8DA;" points="328.655,183.219 328.655,483.105 136.079,373.687 328.655,483.105 136.079,373.687 
			136.079,73.801 		"/>
		<polygon style="fill:#E0E0E2;" points="136.079,73.809 185.538,45.067 378.114,154.485 328.655,183.228 		"/>
		<polygon style="fill:#C6C5CB;" points="328.655,183.228 378.114,154.485 378.114,454.371 328.655,483.113 		"/>
	</g>
	<g>
		<path id="SVGCleanerId_1_1_" style="fill:#6049EA;" d="M113.643,61.23c-12.192-7.039-18.28-16.3-18.254-25.547v326.261
			c-0.026,9.247,6.062,18.508,18.255,25.546l215.657,124.509V185.74L113.643,61.23z"/>
	</g>
	<polygon style="fill:#512CB7;" points="349.447,174.032 349.447,500.292 329.301,512 329.301,185.74 	"/>
	<path style="fill:#7364FF;" d="M416.61,135l-20.147,11.708L180.806,22.199c-13.044-7.532-34.204-7.527-47.164,0.004
		c-12.96,7.532-12.897,19.788,0.147,27.318l215.657,124.509l-20.147,11.708L113.643,61.23
		c-24.228-13.988-24.355-36.751-0.285-50.738s63.368-13.988,87.596,0L416.61,135z"/>
</g>
<path style="fill:#D8D8DA;" d="M221.847,274.015l8.668-5.025c5.219-3.033,8.455-9.482,8.481-18.648
	c0.052-18.451-12.921-40.923-28.979-50.193c-8.081-4.665-15.403-5.099-20.69-2.026l-15.505,8.989
	c0.017-0.009,0.036-0.018,0.052-0.027c-5.248,3.021-8.507,9.479-8.534,18.675c-0.033,11.89,5.352,25.438,13.477,36.059
	c-0.163,0.089-0.329,0.17-0.489,0.263l-15.505,8.989c0.067-0.039,0.137-0.072,0.205-0.11c-8.064,4.568-13.078,14.429-13.117,28.501
	l-0.087,30.471l88.542,51.12v-0.086v0.086l15.505-8.989l0.087-30.47C254.025,318.286,240.437,290.778,221.847,274.015z"/>
<path id="SVGCleanerId_0" style="fill:#E0E0E2;" d="M162.824,271.068l15.505-8.989c6.401-3.72,14.76-4.065,24.102-0.48
	l-15.505,8.989C177.585,267.003,169.225,267.348,162.824,271.068z"/>
<path style="fill:#E0E0E2;" d="M210.017,200.148c-8.081-4.665-15.403-5.099-20.69-2.026l-15.505,8.989
	c5.287-3.072,12.609-2.639,20.69,2.026c16.057,9.27,29.031,31.742,28.979,50.193c-0.026,9.166-3.262,15.616-8.481,18.648
	l15.505-8.989c5.219-3.033,8.455-9.482,8.481-18.648C239.048,231.89,226.075,209.418,210.017,200.148z"/>
<g>
	<path id="SVGCleanerId_0_1_" style="fill:#E0E0E2;" d="M162.824,271.068l15.505-8.989c6.401-3.72,14.76-4.065,24.102-0.48
		l-15.505,8.989C177.585,267.003,169.225,267.348,162.824,271.068z"/>
</g>
<path style="fill:#E0E0E2;" d="M217.229,270.143l-15.505,8.989c20.916,16.129,36.802,46.252,36.731,71.448l-0.087,30.47
	l15.505-8.989l0.087-30.47C254.031,316.394,238.145,286.272,217.229,270.143z"/>
<path style="fill:#D8D8DA;" d="M194.512,209.137c16.057,9.27,29.031,31.742,28.979,50.193c-0.044,15.513-9.283,23.244-21.767,19.802
	c20.916,16.129,36.802,46.251,36.731,71.448l-0.087,30.47l-88.542-51.12l0.087-30.47c0.071-25.196,16.076-36.907,37.015-28.871
	c-12.463-10.961-21.628-29.317-21.584-44.831C165.394,207.306,178.455,199.865,194.512,209.137z"/>
<g>
</g>
<g>
</g>
<g>
</g>
<g>
</g>
<g>
</g>
<g>
</g>
<g>
</g>
<g>
</g>
<g>
</g>
<g>
</g>
<g>
</g>
<g>
</g>
<g>
</g>
<g>
</g>
<g>
</g>
</svg>
